<mxfile host="app.diagrams.net" modified="2023-07-12T07:54:13.079Z" agent="Mozilla/5.0 (X11; Linux x86_64; rv:109.0) Gecko/20100101 Firefox/114.0" etag="oRSu4v-RwXtgCcJaFiNK" version="21.6.2" type="device">
  <diagram id="C5RBs43oDa-KdzZeNtuy" name="Page-1">
    <mxGraphModel dx="666" dy="368" grid="1" gridSize="10" guides="1" tooltips="1" connect="1" arrows="1" fold="1" page="1" pageScale="1" pageWidth="827" pageHeight="1169" math="0" shadow="0">
      <root>
        <mxCell id="WIyWlLk6GJQsqaUBKTNV-0" />
        <mxCell id="WIyWlLk6GJQsqaUBKTNV-1" parent="WIyWlLk6GJQsqaUBKTNV-0" />
        <mxCell id="B75zcLh35eczzHNAlUXd-3" style="edgeStyle=orthogonalEdgeStyle;rounded=0;orthogonalLoop=1;jettySize=auto;html=1;exitX=0.5;exitY=1;exitDx=0;exitDy=0;exitPerimeter=0;entryX=0.5;entryY=0;entryDx=0;entryDy=0;" parent="WIyWlLk6GJQsqaUBKTNV-1" source="B75zcLh35eczzHNAlUXd-0" target="B75zcLh35eczzHNAlUXd-1" edge="1">
          <mxGeometry relative="1" as="geometry" />
        </mxCell>
        <mxCell id="B75zcLh35eczzHNAlUXd-0" value="START" style="strokeWidth=2;html=1;shape=mxgraph.flowchart.start_1;whiteSpace=wrap;" parent="WIyWlLk6GJQsqaUBKTNV-1" vertex="1">
          <mxGeometry x="160" y="20" width="100" height="60" as="geometry" />
        </mxCell>
        <mxCell id="B75zcLh35eczzHNAlUXd-4" style="edgeStyle=orthogonalEdgeStyle;rounded=0;orthogonalLoop=1;jettySize=auto;html=1;exitX=0.5;exitY=1;exitDx=0;exitDy=0;entryX=0.5;entryY=0;entryDx=0;entryDy=0;" parent="WIyWlLk6GJQsqaUBKTNV-1" source="B75zcLh35eczzHNAlUXd-1" target="B75zcLh35eczzHNAlUXd-2" edge="1">
          <mxGeometry relative="1" as="geometry" />
        </mxCell>
        <mxCell id="B75zcLh35eczzHNAlUXd-1" value="T= {N&lt;sub&gt;S&lt;/sub&gt; samples from N(x,w)}" style="rounded=1;whiteSpace=wrap;html=1;absoluteArcSize=1;arcSize=14;strokeWidth=2;" parent="WIyWlLk6GJQsqaUBKTNV-1" vertex="1">
          <mxGeometry x="155" y="100" width="110" height="50" as="geometry" />
        </mxCell>
        <mxCell id="B75zcLh35eczzHNAlUXd-6" style="edgeStyle=orthogonalEdgeStyle;rounded=0;orthogonalLoop=1;jettySize=auto;html=1;exitX=0.5;exitY=1;exitDx=0;exitDy=0;entryX=0.5;entryY=0;entryDx=0;entryDy=0;" parent="WIyWlLk6GJQsqaUBKTNV-1" source="B75zcLh35eczzHNAlUXd-2" target="B75zcLh35eczzHNAlUXd-5" edge="1">
          <mxGeometry relative="1" as="geometry" />
        </mxCell>
        <mxCell id="B75zcLh35eczzHNAlUXd-2" value="&lt;div&gt;Train N&lt;sub&gt;N&lt;/sub&gt;(x,w) on T&lt;/div&gt;&lt;div&gt;with LBFGS&lt;br&gt;&lt;/div&gt;" style="rounded=1;whiteSpace=wrap;html=1;absoluteArcSize=1;arcSize=14;strokeWidth=2;" parent="WIyWlLk6GJQsqaUBKTNV-1" vertex="1">
          <mxGeometry x="155" y="170" width="110" height="50" as="geometry" />
        </mxCell>
        <mxCell id="B75zcLh35eczzHNAlUXd-8" style="edgeStyle=orthogonalEdgeStyle;rounded=0;orthogonalLoop=1;jettySize=auto;html=1;exitX=0.5;exitY=1;exitDx=0;exitDy=0;entryX=0.5;entryY=0;entryDx=0;entryDy=0;" parent="WIyWlLk6GJQsqaUBKTNV-1" source="B75zcLh35eczzHNAlUXd-5" target="B75zcLh35eczzHNAlUXd-7" edge="1">
          <mxGeometry relative="1" as="geometry" />
        </mxCell>
        <mxCell id="B75zcLh35eczzHNAlUXd-5" value="T&lt;sub&gt;R&lt;/sub&gt;={N&lt;sub&gt;R&lt;/sub&gt; randomly selected points from N&lt;sub&gt;N&lt;/sub&gt;(x,w)}" style="rounded=1;whiteSpace=wrap;html=1;absoluteArcSize=1;arcSize=14;strokeWidth=2;" parent="WIyWlLk6GJQsqaUBKTNV-1" vertex="1">
          <mxGeometry x="155" y="240" width="110" height="50" as="geometry" />
        </mxCell>
        <mxCell id="B75zcLh35eczzHNAlUXd-10" style="edgeStyle=orthogonalEdgeStyle;rounded=0;orthogonalLoop=1;jettySize=auto;html=1;exitX=0.5;exitY=1;exitDx=0;exitDy=0;entryX=0.5;entryY=0;entryDx=0;entryDy=0;" parent="WIyWlLk6GJQsqaUBKTNV-1" source="B75zcLh35eczzHNAlUXd-7" target="B75zcLh35eczzHNAlUXd-9" edge="1">
          <mxGeometry relative="1" as="geometry" />
        </mxCell>
        <mxCell id="B75zcLh35eczzHNAlUXd-7" value="SORT T&lt;sub&gt;R&lt;/sub&gt;" style="rounded=1;whiteSpace=wrap;html=1;absoluteArcSize=1;arcSize=14;strokeWidth=2;" parent="WIyWlLk6GJQsqaUBKTNV-1" vertex="1">
          <mxGeometry x="155" y="300" width="110" height="50" as="geometry" />
        </mxCell>
        <mxCell id="B75zcLh35eczzHNAlUXd-12" style="edgeStyle=orthogonalEdgeStyle;rounded=0;orthogonalLoop=1;jettySize=auto;html=1;exitX=1;exitY=0.25;exitDx=0;exitDy=0;entryX=0;entryY=0.75;entryDx=0;entryDy=0;" parent="WIyWlLk6GJQsqaUBKTNV-1" source="B75zcLh35eczzHNAlUXd-9" target="B75zcLh35eczzHNAlUXd-11" edge="1">
          <mxGeometry relative="1" as="geometry" />
        </mxCell>
        <mxCell id="B75zcLh35eczzHNAlUXd-9" value="i=1" style="rounded=1;whiteSpace=wrap;html=1;absoluteArcSize=1;arcSize=14;strokeWidth=2;" parent="WIyWlLk6GJQsqaUBKTNV-1" vertex="1">
          <mxGeometry x="155" y="360" width="105" height="30" as="geometry" />
        </mxCell>
        <mxCell id="B75zcLh35eczzHNAlUXd-14" style="edgeStyle=orthogonalEdgeStyle;rounded=0;orthogonalLoop=1;jettySize=auto;html=1;exitX=0.5;exitY=1;exitDx=0;exitDy=0;entryX=0.5;entryY=0;entryDx=0;entryDy=0;" parent="WIyWlLk6GJQsqaUBKTNV-1" source="B75zcLh35eczzHNAlUXd-11" target="B75zcLh35eczzHNAlUXd-13" edge="1">
          <mxGeometry relative="1" as="geometry" />
        </mxCell>
        <mxCell id="B75zcLh35eczzHNAlUXd-11" value="Get (w&lt;sub&gt;i&lt;/sub&gt;,y&lt;sub&gt;i&lt;/sub&gt;) from T&lt;sub&gt;R&lt;/sub&gt;" style="rounded=1;whiteSpace=wrap;html=1;absoluteArcSize=1;arcSize=14;strokeWidth=2;" parent="WIyWlLk6GJQsqaUBKTNV-1" vertex="1">
          <mxGeometry x="340" y="110" width="115" height="40" as="geometry" />
        </mxCell>
        <mxCell id="B75zcLh35eczzHNAlUXd-16" style="edgeStyle=orthogonalEdgeStyle;rounded=0;orthogonalLoop=1;jettySize=auto;html=1;exitX=0.5;exitY=1;exitDx=0;exitDy=0;entryX=0.5;entryY=0;entryDx=0;entryDy=0;" parent="WIyWlLk6GJQsqaUBKTNV-1" source="B75zcLh35eczzHNAlUXd-13" target="B75zcLh35eczzHNAlUXd-15" edge="1">
          <mxGeometry relative="1" as="geometry" />
        </mxCell>
        <mxCell id="B75zcLh35eczzHNAlUXd-13" value="Train N(w&lt;sub&gt;i&lt;/sub&gt;,x) with LBFGS with error y&lt;sub&gt;i&lt;/sub&gt;" style="rounded=1;whiteSpace=wrap;html=1;absoluteArcSize=1;arcSize=14;strokeWidth=2;" parent="WIyWlLk6GJQsqaUBKTNV-1" vertex="1">
          <mxGeometry x="340" y="170" width="115" height="40" as="geometry" />
        </mxCell>
        <mxCell id="B75zcLh35eczzHNAlUXd-18" style="edgeStyle=orthogonalEdgeStyle;rounded=0;orthogonalLoop=1;jettySize=auto;html=1;exitX=0.5;exitY=1;exitDx=0;exitDy=0;entryX=0.5;entryY=0;entryDx=0;entryDy=0;" parent="WIyWlLk6GJQsqaUBKTNV-1" source="B75zcLh35eczzHNAlUXd-15" target="B75zcLh35eczzHNAlUXd-17" edge="1">
          <mxGeometry relative="1" as="geometry" />
        </mxCell>
        <mxCell id="B75zcLh35eczzHNAlUXd-15" value="T=T U (w&lt;sub&gt;i&lt;/sub&gt;,y&lt;sub&gt;i&lt;/sub&gt;)" style="rounded=1;whiteSpace=wrap;html=1;absoluteArcSize=1;arcSize=14;strokeWidth=2;" parent="WIyWlLk6GJQsqaUBKTNV-1" vertex="1">
          <mxGeometry x="340" y="230" width="115" height="40" as="geometry" />
        </mxCell>
        <mxCell id="B75zcLh35eczzHNAlUXd-20" style="edgeStyle=orthogonalEdgeStyle;rounded=0;orthogonalLoop=1;jettySize=auto;html=1;exitX=0.5;exitY=1;exitDx=0;exitDy=0;entryX=0.5;entryY=0;entryDx=0;entryDy=0;entryPerimeter=0;" parent="WIyWlLk6GJQsqaUBKTNV-1" source="B75zcLh35eczzHNAlUXd-17" target="B75zcLh35eczzHNAlUXd-19" edge="1">
          <mxGeometry relative="1" as="geometry" />
        </mxCell>
        <mxCell id="B75zcLh35eczzHNAlUXd-17" value="&lt;div&gt;Train N&lt;sub&gt;N&lt;/sub&gt;(x,w) on T&lt;/div&gt;&lt;div&gt;with LBFGS&lt;br&gt;&lt;/div&gt;" style="rounded=1;whiteSpace=wrap;html=1;absoluteArcSize=1;arcSize=14;strokeWidth=2;" parent="WIyWlLk6GJQsqaUBKTNV-1" vertex="1">
          <mxGeometry x="340" y="290" width="110" height="50" as="geometry" />
        </mxCell>
        <mxCell id="B75zcLh35eczzHNAlUXd-22" style="edgeStyle=orthogonalEdgeStyle;rounded=0;orthogonalLoop=1;jettySize=auto;html=1;exitX=0;exitY=0.5;exitDx=0;exitDy=0;exitPerimeter=0;entryX=0.365;entryY=0.025;entryDx=0;entryDy=0;entryPerimeter=0;" parent="WIyWlLk6GJQsqaUBKTNV-1" source="B75zcLh35eczzHNAlUXd-19" target="B75zcLh35eczzHNAlUXd-21" edge="1">
          <mxGeometry relative="1" as="geometry" />
        </mxCell>
        <mxCell id="B75zcLh35eczzHNAlUXd-23" value="YES" style="edgeLabel;html=1;align=center;verticalAlign=middle;resizable=0;points=[];" parent="B75zcLh35eczzHNAlUXd-22" vertex="1" connectable="0">
          <mxGeometry x="-0.3333" y="2" relative="1" as="geometry">
            <mxPoint x="3" y="-12" as="offset" />
          </mxGeometry>
        </mxCell>
        <mxCell id="B75zcLh35eczzHNAlUXd-26" style="edgeStyle=orthogonalEdgeStyle;rounded=0;orthogonalLoop=1;jettySize=auto;html=1;exitX=1;exitY=0.5;exitDx=0;exitDy=0;exitPerimeter=0;entryX=0.5;entryY=0;entryDx=0;entryDy=0;entryPerimeter=0;" parent="WIyWlLk6GJQsqaUBKTNV-1" source="B75zcLh35eczzHNAlUXd-19" target="B75zcLh35eczzHNAlUXd-28" edge="1">
          <mxGeometry relative="1" as="geometry">
            <mxPoint x="416.25" y="510" as="targetPoint" />
          </mxGeometry>
        </mxCell>
        <mxCell id="B75zcLh35eczzHNAlUXd-19" value="y&lt;sub&gt;i&lt;/sub&gt;&amp;lt;y*" style="strokeWidth=2;html=1;shape=mxgraph.flowchart.decision;whiteSpace=wrap;" parent="WIyWlLk6GJQsqaUBKTNV-1" vertex="1">
          <mxGeometry x="345" y="360" width="100" height="60" as="geometry" />
        </mxCell>
        <mxCell id="B75zcLh35eczzHNAlUXd-25" style="edgeStyle=orthogonalEdgeStyle;rounded=0;orthogonalLoop=1;jettySize=auto;html=1;exitX=0.75;exitY=1;exitDx=0;exitDy=0;entryX=0.5;entryY=0;entryDx=0;entryDy=0;" parent="WIyWlLk6GJQsqaUBKTNV-1" source="B75zcLh35eczzHNAlUXd-21" target="B75zcLh35eczzHNAlUXd-28" edge="1">
          <mxGeometry relative="1" as="geometry">
            <mxPoint x="387.5" y="510" as="targetPoint" />
          </mxGeometry>
        </mxCell>
        <mxCell id="B75zcLh35eczzHNAlUXd-21" value="w*=w&lt;sub&gt;i&lt;/sub&gt;,y*=y&lt;sub&gt;i&lt;/sub&gt;" style="rounded=1;whiteSpace=wrap;html=1;absoluteArcSize=1;arcSize=14;strokeWidth=2;" parent="WIyWlLk6GJQsqaUBKTNV-1" vertex="1">
          <mxGeometry x="270" y="440" width="115" height="40" as="geometry" />
        </mxCell>
        <mxCell id="B75zcLh35eczzHNAlUXd-27" value="NO" style="text;html=1;align=center;verticalAlign=middle;resizable=0;points=[];autosize=1;strokeColor=none;fillColor=none;" parent="WIyWlLk6GJQsqaUBKTNV-1" vertex="1">
          <mxGeometry x="440" y="368" width="40" height="30" as="geometry" />
        </mxCell>
        <mxCell id="B75zcLh35eczzHNAlUXd-31" style="edgeStyle=orthogonalEdgeStyle;rounded=0;orthogonalLoop=1;jettySize=auto;html=1;exitX=0;exitY=0.5;exitDx=0;exitDy=0;exitPerimeter=0;entryX=0.573;entryY=-0.02;entryDx=0;entryDy=0;entryPerimeter=0;" parent="WIyWlLk6GJQsqaUBKTNV-1" source="B75zcLh35eczzHNAlUXd-28" target="B75zcLh35eczzHNAlUXd-29" edge="1">
          <mxGeometry relative="1" as="geometry" />
        </mxCell>
        <mxCell id="B75zcLh35eczzHNAlUXd-32" style="edgeStyle=orthogonalEdgeStyle;rounded=0;orthogonalLoop=1;jettySize=auto;html=1;exitX=1;exitY=0.5;exitDx=0;exitDy=0;exitPerimeter=0;entryX=0.5;entryY=0;entryDx=0;entryDy=0;" parent="WIyWlLk6GJQsqaUBKTNV-1" source="B75zcLh35eczzHNAlUXd-28" target="B75zcLh35eczzHNAlUXd-30" edge="1">
          <mxGeometry relative="1" as="geometry" />
        </mxCell>
        <mxCell id="B75zcLh35eczzHNAlUXd-28" value="Check termination" style="strokeWidth=2;html=1;shape=mxgraph.flowchart.decision;whiteSpace=wrap;" parent="WIyWlLk6GJQsqaUBKTNV-1" vertex="1">
          <mxGeometry x="332.5" y="500" width="130" height="60" as="geometry" />
        </mxCell>
        <mxCell id="B75zcLh35eczzHNAlUXd-29" value="Apply N(x,w*) on test set and terminate" style="rounded=1;whiteSpace=wrap;html=1;absoluteArcSize=1;arcSize=14;strokeWidth=2;" parent="WIyWlLk6GJQsqaUBKTNV-1" vertex="1">
          <mxGeometry x="240" y="580" width="110" height="50" as="geometry" />
        </mxCell>
        <mxCell id="B75zcLh35eczzHNAlUXd-34" style="edgeStyle=orthogonalEdgeStyle;rounded=0;orthogonalLoop=1;jettySize=auto;html=1;exitX=0.5;exitY=1;exitDx=0;exitDy=0;entryX=0.5;entryY=0;entryDx=0;entryDy=0;entryPerimeter=0;" parent="WIyWlLk6GJQsqaUBKTNV-1" source="B75zcLh35eczzHNAlUXd-30" target="B75zcLh35eczzHNAlUXd-33" edge="1">
          <mxGeometry relative="1" as="geometry" />
        </mxCell>
        <mxCell id="B75zcLh35eczzHNAlUXd-30" value="i=i+1" style="rounded=1;whiteSpace=wrap;html=1;absoluteArcSize=1;arcSize=14;strokeWidth=2;" parent="WIyWlLk6GJQsqaUBKTNV-1" vertex="1">
          <mxGeometry x="402.5" y="590" width="115" height="40" as="geometry" />
        </mxCell>
        <mxCell id="B75zcLh35eczzHNAlUXd-37" style="edgeStyle=orthogonalEdgeStyle;rounded=0;orthogonalLoop=1;jettySize=auto;html=1;exitX=1;exitY=0.5;exitDx=0;exitDy=0;exitPerimeter=0;entryX=1;entryY=0.5;entryDx=0;entryDy=0;" parent="WIyWlLk6GJQsqaUBKTNV-1" source="B75zcLh35eczzHNAlUXd-33" target="B75zcLh35eczzHNAlUXd-11" edge="1">
          <mxGeometry relative="1" as="geometry">
            <mxPoint x="530" y="130" as="targetPoint" />
            <Array as="points">
              <mxPoint x="620" y="685" />
              <mxPoint x="620" y="150" />
              <mxPoint x="455" y="150" />
            </Array>
          </mxGeometry>
        </mxCell>
        <mxCell id="B75zcLh35eczzHNAlUXd-42" value="NO" style="edgeLabel;html=1;align=center;verticalAlign=middle;resizable=0;points=[];" parent="B75zcLh35eczzHNAlUXd-37" vertex="1" connectable="0">
          <mxGeometry x="-0.9665" y="1" relative="1" as="geometry">
            <mxPoint x="-1" y="-14" as="offset" />
          </mxGeometry>
        </mxCell>
        <mxCell id="B75zcLh35eczzHNAlUXd-38" style="edgeStyle=orthogonalEdgeStyle;rounded=0;orthogonalLoop=1;jettySize=auto;html=1;exitX=0;exitY=0.5;exitDx=0;exitDy=0;exitPerimeter=0;entryX=0;entryY=0.5;entryDx=0;entryDy=0;" parent="WIyWlLk6GJQsqaUBKTNV-1" source="B75zcLh35eczzHNAlUXd-33" target="B75zcLh35eczzHNAlUXd-5" edge="1">
          <mxGeometry relative="1" as="geometry">
            <Array as="points">
              <mxPoint x="100" y="685" />
              <mxPoint x="100" y="265" />
            </Array>
          </mxGeometry>
        </mxCell>
        <mxCell id="B75zcLh35eczzHNAlUXd-41" value="YES" style="edgeLabel;html=1;align=center;verticalAlign=middle;resizable=0;points=[];" parent="B75zcLh35eczzHNAlUXd-38" vertex="1" connectable="0">
          <mxGeometry x="-0.9099" relative="1" as="geometry">
            <mxPoint x="14" y="-15" as="offset" />
          </mxGeometry>
        </mxCell>
        <mxCell id="B75zcLh35eczzHNAlUXd-33" value="i&amp;gt;=N&lt;sub&gt;T&lt;/sub&gt;" style="strokeWidth=2;html=1;shape=mxgraph.flowchart.decision;whiteSpace=wrap;" parent="WIyWlLk6GJQsqaUBKTNV-1" vertex="1">
          <mxGeometry x="380" y="650" width="125" height="70" as="geometry" />
        </mxCell>
      </root>
    </mxGraphModel>
  </diagram>
</mxfile>
